<mxfile host="app.diagrams.net" modified="2022-12-26T17:47:07.324Z" agent="5.0 (Windows NT 10.0; Win64; x64) AppleWebKit/537.36 (KHTML, like Gecko) Chrome/108.0.0.0 Safari/537.36" etag="LmZsI9nYn-aHQxChY_AE" version="20.6.0" type="github">
  <diagram id="C5RBs43oDa-KdzZeNtuy" name="Page-1">
    <mxGraphModel dx="868" dy="450" grid="1" gridSize="10" guides="1" tooltips="1" connect="1" arrows="1" fold="1" page="1" pageScale="1" pageWidth="1169" pageHeight="1654" math="0" shadow="0">
      <root>
        <mxCell id="WIyWlLk6GJQsqaUBKTNV-0" />
        <mxCell id="WIyWlLk6GJQsqaUBKTNV-1" parent="WIyWlLk6GJQsqaUBKTNV-0" />
        <mxCell id="C3VA6jmN2d7xKtj9Bd7D-0" value="Reserva" style="swimlane;fontStyle=1;align=center;verticalAlign=top;childLayout=stackLayout;horizontal=1;startSize=26;horizontalStack=0;resizeParent=1;resizeParentMax=0;resizeLast=0;collapsible=1;marginBottom=0;" parent="WIyWlLk6GJQsqaUBKTNV-1" vertex="1">
          <mxGeometry x="40" y="40" width="190" height="208" as="geometry" />
        </mxCell>
        <mxCell id="C3VA6jmN2d7xKtj9Bd7D-1" value="- fInicio:Date&#xa;- fFin:Date&#xa;- herramienta: Herramienta&#xa;- nombre:String&#xa;- apellido:String&#xa;- direccion:String&#xa;" style="text;strokeColor=none;fillColor=none;align=left;verticalAlign=top;spacingLeft=4;spacingRight=4;overflow=hidden;rotatable=0;points=[[0,0.5],[1,0.5]];portConstraint=eastwest;" parent="C3VA6jmN2d7xKtj9Bd7D-0" vertex="1">
          <mxGeometry y="26" width="190" height="104" as="geometry" />
        </mxCell>
        <mxCell id="C3VA6jmN2d7xKtj9Bd7D-2" value="" style="line;strokeWidth=1;fillColor=none;align=left;verticalAlign=middle;spacingTop=-1;spacingLeft=3;spacingRight=3;rotatable=0;labelPosition=right;points=[];portConstraint=eastwest;strokeColor=inherit;" parent="C3VA6jmN2d7xKtj9Bd7D-0" vertex="1">
          <mxGeometry y="130" width="190" height="8" as="geometry" />
        </mxCell>
        <mxCell id="C3VA6jmN2d7xKtj9Bd7D-3" value="+ getfInicio(): Date&#xa;+ getfFin(): Date&#xa;+ getHerramienta(): Herramienta" style="text;strokeColor=none;fillColor=none;align=left;verticalAlign=top;spacingLeft=4;spacingRight=4;overflow=hidden;rotatable=0;points=[[0,0.5],[1,0.5]];portConstraint=eastwest;" parent="C3VA6jmN2d7xKtj9Bd7D-0" vertex="1">
          <mxGeometry y="138" width="190" height="70" as="geometry" />
        </mxCell>
        <mxCell id="C3VA6jmN2d7xKtj9Bd7D-4" value="Calendario" style="swimlane;fontStyle=1;align=center;verticalAlign=top;childLayout=stackLayout;horizontal=1;startSize=26;horizontalStack=0;resizeParent=1;resizeParentMax=0;resizeLast=0;collapsible=1;marginBottom=0;" parent="WIyWlLk6GJQsqaUBKTNV-1" vertex="1">
          <mxGeometry x="350" y="40" width="220" height="168" as="geometry" />
        </mxCell>
        <mxCell id="C3VA6jmN2d7xKtj9Bd7D-5" value="- reservas: List&lt;Reserva&gt;&#xa;- cerradura: Cerradura" style="text;strokeColor=none;fillColor=none;align=left;verticalAlign=top;spacingLeft=4;spacingRight=4;overflow=hidden;rotatable=0;points=[[0,0.5],[1,0.5]];portConstraint=eastwest;" parent="C3VA6jmN2d7xKtj9Bd7D-4" vertex="1">
          <mxGeometry y="26" width="220" height="64" as="geometry" />
        </mxCell>
        <mxCell id="C3VA6jmN2d7xKtj9Bd7D-6" value="" style="line;strokeWidth=1;fillColor=none;align=left;verticalAlign=middle;spacingTop=-1;spacingLeft=3;spacingRight=3;rotatable=0;labelPosition=right;points=[];portConstraint=eastwest;strokeColor=inherit;" parent="C3VA6jmN2d7xKtj9Bd7D-4" vertex="1">
          <mxGeometry y="90" width="220" height="8" as="geometry" />
        </mxCell>
        <mxCell id="C3VA6jmN2d7xKtj9Bd7D-7" value="+ addReserva (&#xa;                reserva: Reserva): boolean&#xa;+ setCerradura(&#xa;                cerradura: Cerradura):void" style="text;strokeColor=none;fillColor=none;align=left;verticalAlign=top;spacingLeft=4;spacingRight=4;overflow=hidden;rotatable=0;points=[[0,0.5],[1,0.5]];portConstraint=eastwest;" parent="C3VA6jmN2d7xKtj9Bd7D-4" vertex="1">
          <mxGeometry y="98" width="220" height="70" as="geometry" />
        </mxCell>
        <mxCell id="C3VA6jmN2d7xKtj9Bd7D-8" value="Herramienta" style="swimlane;fontStyle=1;align=center;verticalAlign=top;childLayout=stackLayout;horizontal=1;startSize=26;horizontalStack=0;resizeParent=1;resizeParentMax=0;resizeLast=0;collapsible=1;marginBottom=0;" parent="WIyWlLk6GJQsqaUBKTNV-1" vertex="1">
          <mxGeometry x="40" y="360" width="220" height="310" as="geometry" />
        </mxCell>
        <mxCell id="C3VA6jmN2d7xKtj9Bd7D-9" value="- id: int&#xa;- descripcion: String&#xa;- reservas: List&lt;Reserva&gt;" style="text;strokeColor=none;fillColor=none;align=left;verticalAlign=top;spacingLeft=4;spacingRight=4;overflow=hidden;rotatable=0;points=[[0,0.5],[1,0.5]];portConstraint=eastwest;" parent="C3VA6jmN2d7xKtj9Bd7D-8" vertex="1">
          <mxGeometry y="26" width="220" height="74" as="geometry" />
        </mxCell>
        <mxCell id="C3VA6jmN2d7xKtj9Bd7D-10" value="" style="line;strokeWidth=1;fillColor=none;align=left;verticalAlign=middle;spacingTop=-1;spacingLeft=3;spacingRight=3;rotatable=0;labelPosition=right;points=[];portConstraint=eastwest;strokeColor=inherit;" parent="C3VA6jmN2d7xKtj9Bd7D-8" vertex="1">
          <mxGeometry y="100" width="220" height="8" as="geometry" />
        </mxCell>
        <mxCell id="C3VA6jmN2d7xKtj9Bd7D-11" value="+ estaDisponible(&#xa;            fInicio: Date&#xa;            fFin:Date): boolean&#xa;&#xa;- seSolapa (&#xa;             fInicio1: Date&#xa;             fFin1: Date&#xa;             fInicio2: Date&#xa;             fFin2: Date): boolean.&#xa;&#xa;+ addReserva (reserva: Reserva)void&#xa;" style="text;strokeColor=none;fillColor=none;align=left;verticalAlign=top;spacingLeft=4;spacingRight=4;overflow=hidden;rotatable=0;points=[[0,0.5],[1,0.5]];portConstraint=eastwest;" parent="C3VA6jmN2d7xKtj9Bd7D-8" vertex="1">
          <mxGeometry y="108" width="220" height="202" as="geometry" />
        </mxCell>
        <mxCell id="C3VA6jmN2d7xKtj9Bd7D-20" value="«interface»&lt;br&gt;&lt;b&gt;Cerradura&lt;/b&gt;" style="html=1;" parent="WIyWlLk6GJQsqaUBKTNV-1" vertex="1">
          <mxGeometry x="359" y="360" width="201" height="50" as="geometry" />
        </mxCell>
        <mxCell id="C3VA6jmN2d7xKtj9Bd7D-21" value="" style="html=1;" parent="WIyWlLk6GJQsqaUBKTNV-1" vertex="1">
          <mxGeometry x="359" y="410" width="201" height="120" as="geometry" />
        </mxCell>
        <mxCell id="C3VA6jmN2d7xKtj9Bd7D-22" value="+ registrarAccesoTemporal (&#xa;            codigo: int&#xa;            minutos:int): void&#xa;&#xa;+ registrarAccesoPermanente(&#xa;              codigo: int): void" style="text;strokeColor=none;fillColor=none;align=left;verticalAlign=top;spacingLeft=4;spacingRight=4;overflow=hidden;rotatable=0;points=[[0,0.5],[1,0.5]];portConstraint=eastwest;" parent="WIyWlLk6GJQsqaUBKTNV-1" vertex="1">
          <mxGeometry x="359" y="410" width="201" height="120" as="geometry" />
        </mxCell>
        <mxCell id="C3VA6jmN2d7xKtj9Bd7D-27" value="CerraduraElectronica" style="swimlane;fontStyle=1;align=center;verticalAlign=top;childLayout=stackLayout;horizontal=1;startSize=32;horizontalStack=0;resizeParent=1;resizeParentMax=0;resizeLast=0;collapsible=1;marginBottom=0;" parent="WIyWlLk6GJQsqaUBKTNV-1" vertex="1">
          <mxGeometry x="720" y="158" width="190" height="162" as="geometry" />
        </mxCell>
        <mxCell id="C3VA6jmN2d7xKtj9Bd7D-29" value="" style="line;strokeWidth=1;fillColor=none;align=left;verticalAlign=middle;spacingTop=-1;spacingLeft=3;spacingRight=3;rotatable=0;labelPosition=right;points=[];portConstraint=eastwest;strokeColor=inherit;" parent="C3VA6jmN2d7xKtj9Bd7D-27" vertex="1">
          <mxGeometry y="32" width="190" height="8" as="geometry" />
        </mxCell>
        <mxCell id="C3VA6jmN2d7xKtj9Bd7D-30" value="+ registrarAccesoTemporal (&#xa;            codigo: int&#xa;            minutos:int): void&#xa;&#xa;+ registrarAccesoPermanente(&#xa;              codigo: int): void" style="text;strokeColor=none;fillColor=none;align=left;verticalAlign=top;spacingLeft=4;spacingRight=4;overflow=hidden;rotatable=0;points=[[0,0.5],[1,0.5]];portConstraint=eastwest;" parent="C3VA6jmN2d7xKtj9Bd7D-27" vertex="1">
          <mxGeometry y="40" width="190" height="122" as="geometry" />
        </mxCell>
        <mxCell id="C3VA6jmN2d7xKtj9Bd7D-34" value="" style="endArrow=classic;html=1;rounded=0;entryX=1;entryY=0.5;entryDx=0;entryDy=0;exitX=0.295;exitY=1.016;exitDx=0;exitDy=0;exitPerimeter=0;dashed=1;" parent="WIyWlLk6GJQsqaUBKTNV-1" source="C3VA6jmN2d7xKtj9Bd7D-30" target="C3VA6jmN2d7xKtj9Bd7D-22" edge="1">
          <mxGeometry width="50" height="50" relative="1" as="geometry">
            <mxPoint x="580" y="400" as="sourcePoint" />
            <mxPoint x="630" y="350" as="targetPoint" />
          </mxGeometry>
        </mxCell>
        <mxCell id="C3VA6jmN2d7xKtj9Bd7D-35" value="Implementa" style="text;html=1;strokeColor=none;fillColor=none;align=center;verticalAlign=middle;whiteSpace=wrap;rounded=0;" parent="WIyWlLk6GJQsqaUBKTNV-1" vertex="1">
          <mxGeometry x="670" y="390" width="80" height="30" as="geometry" />
        </mxCell>
        <mxCell id="C3VA6jmN2d7xKtj9Bd7D-37" value="" style="endArrow=none;html=1;rounded=0;exitX=1.133;exitY=0.967;exitDx=0;exitDy=0;exitPerimeter=0;" parent="WIyWlLk6GJQsqaUBKTNV-1" source="C3VA6jmN2d7xKtj9Bd7D-47" edge="1">
          <mxGeometry width="50" height="50" relative="1" as="geometry">
            <mxPoint x="110" y="360" as="sourcePoint" />
            <mxPoint x="118" y="250" as="targetPoint" />
          </mxGeometry>
        </mxCell>
        <mxCell id="C3VA6jmN2d7xKtj9Bd7D-40" value="" style="endArrow=none;html=1;rounded=0;entryX=-0.005;entryY=0.813;entryDx=0;entryDy=0;entryPerimeter=0;exitX=1;exitY=0.5;exitDx=0;exitDy=0;startArrow=none;" parent="WIyWlLk6GJQsqaUBKTNV-1" source="C3VA6jmN2d7xKtj9Bd7D-45" target="C3VA6jmN2d7xKtj9Bd7D-5" edge="1">
          <mxGeometry width="50" height="50" relative="1" as="geometry">
            <mxPoint x="290" y="400" as="sourcePoint" />
            <mxPoint x="340" y="350" as="targetPoint" />
          </mxGeometry>
        </mxCell>
        <mxCell id="C3VA6jmN2d7xKtj9Bd7D-42" value="1" style="endArrow=open;html=1;endSize=12;startArrow=diamondThin;startSize=14;startFill=1;edgeStyle=orthogonalEdgeStyle;align=left;verticalAlign=bottom;rounded=0;exitX=0;exitY=0.5;exitDx=0;exitDy=0;entryX=0.721;entryY=1.129;entryDx=0;entryDy=0;entryPerimeter=0;" parent="WIyWlLk6GJQsqaUBKTNV-1" source="C3VA6jmN2d7xKtj9Bd7D-30" target="C3VA6jmN2d7xKtj9Bd7D-3" edge="1">
          <mxGeometry x="-1" y="3" relative="1" as="geometry">
            <mxPoint x="350" y="370" as="sourcePoint" />
            <mxPoint x="180" y="297" as="targetPoint" />
            <Array as="points">
              <mxPoint x="360" y="259" />
              <mxPoint x="360" y="297" />
              <mxPoint x="177" y="297" />
            </Array>
          </mxGeometry>
        </mxCell>
        <mxCell id="C3VA6jmN2d7xKtj9Bd7D-43" value="0..*" style="text;html=1;strokeColor=none;fillColor=none;align=center;verticalAlign=middle;whiteSpace=wrap;rounded=0;" parent="WIyWlLk6GJQsqaUBKTNV-1" vertex="1">
          <mxGeometry x="220" y="90" width="60" height="30" as="geometry" />
        </mxCell>
        <mxCell id="C3VA6jmN2d7xKtj9Bd7D-45" value="0..*" style="text;html=1;strokeColor=none;fillColor=none;align=center;verticalAlign=middle;whiteSpace=wrap;rounded=0;" parent="WIyWlLk6GJQsqaUBKTNV-1" vertex="1">
          <mxGeometry x="290" y="90" width="60" height="30" as="geometry" />
        </mxCell>
        <mxCell id="C3VA6jmN2d7xKtj9Bd7D-46" value="" style="endArrow=none;html=1;rounded=0;entryX=-0.027;entryY=0.1;entryDx=0;entryDy=0;entryPerimeter=0;exitX=0.995;exitY=0.769;exitDx=0;exitDy=0;exitPerimeter=0;" parent="WIyWlLk6GJQsqaUBKTNV-1" source="C3VA6jmN2d7xKtj9Bd7D-1" target="C3VA6jmN2d7xKtj9Bd7D-7" edge="1">
          <mxGeometry width="50" height="50" relative="1" as="geometry">
            <mxPoint x="230" y="118" as="sourcePoint" />
            <mxPoint x="348.9000000000001" y="118.03200000000004" as="targetPoint" />
          </mxGeometry>
        </mxCell>
        <mxCell id="C3VA6jmN2d7xKtj9Bd7D-47" value="0..*" style="text;html=1;strokeColor=none;fillColor=none;align=center;verticalAlign=middle;whiteSpace=wrap;rounded=0;" parent="WIyWlLk6GJQsqaUBKTNV-1" vertex="1">
          <mxGeometry x="50" y="330" width="60" height="30" as="geometry" />
        </mxCell>
        <mxCell id="C3VA6jmN2d7xKtj9Bd7D-48" value="0..*" style="text;html=1;strokeColor=none;fillColor=none;align=center;verticalAlign=middle;whiteSpace=wrap;rounded=0;" parent="WIyWlLk6GJQsqaUBKTNV-1" vertex="1">
          <mxGeometry x="40" y="250" width="60" height="30" as="geometry" />
        </mxCell>
      </root>
    </mxGraphModel>
  </diagram>
</mxfile>
